<svg width="32" height="32" viewBox="0 0 32 32" fill="none" xmlns="http://www.w3.org/2000/svg">
<path d="M18.2408 26.925C16.7208 28.5083 14.9791 30.1391 12.9999 31.8333C4.56075 24.6291 0.333252 18.4066 0.333252 13.15C0.333252 5.26496 6.34992 0.166626 12.9999 0.166626C19.3333 0.166626 25.0966 4.78996 25.6191 12.0416H31.2083L24.0833 19.1666L16.9583 12.0416H22.4524C21.9458 6.87996 17.9558 3.33329 12.9999 3.33329C7.69575 3.33329 3.49992 7.40246 3.49992 13.15C3.49992 16.855 6.58742 21.7633 12.9999 27.6216C14.0133 26.6875 14.9474 25.785 15.8024 24.9141C15.5238 24.3644 15.3774 23.7571 15.3749 23.1408C15.3749 22.091 15.792 21.0842 16.5343 20.3418C17.2766 19.5995 18.2834 19.1825 19.3333 19.1825C20.3831 19.1825 21.3899 19.5995 22.1322 20.3418C22.8745 21.0842 23.2916 22.091 23.2916 23.1408C23.291 23.7531 23.148 24.3568 22.8738 24.9043C22.5996 25.4517 22.2017 25.9278 21.7117 26.295C21.2217 26.6621 20.653 26.9101 20.0506 27.0195C19.4481 27.1288 18.8285 27.0965 18.2408 26.925Z" fill="#FA793C"/>
</svg>
